<svg xmlns="http://www.w3.org/2000/svg" width="760" height="360" viewBox="0 0 760 360" role="img" aria-label="Abstract battlefield command map">
  <defs>
    <linearGradient id="field" x1="0" x2="1" y1="0" y2="1">
      <stop offset="0" stop-color="#26301f"/>
      <stop offset="0.5" stop-color="#141a13"/>
      <stop offset="1" stop-color="#0a0e0a"/>
    </linearGradient>
    <pattern id="grid" width="48" height="48" patternUnits="userSpaceOnUse">
      <path d="M48 0H0v48" fill="none" stroke="#d9f99d" stroke-opacity="0.08" stroke-width="1"/>
    </pattern>
  </defs>
  <rect width="760" height="360" fill="url(#field)"/>
  <rect width="760" height="360" fill="url(#grid)"/>
  <path d="M-40 270C96 210 140 298 258 238c85-43 96-119 205-107 92 10 133 75 228 44 45-15 76-48 107-83" fill="none" stroke="#74d99f" stroke-opacity="0.24" stroke-width="3"/>
  <path d="M-28 198C89 150 145 203 228 180c107-31 109-116 222-118 112-2 148 82 243 50 33-11 60-30 91-57" fill="none" stroke="#7cc8ff" stroke-opacity="0.2" stroke-width="2"/>
  <path d="M54 323c113-58 155-22 250-68 87-42 99-99 201-94 102 4 149 59 249 14" fill="none" stroke="#f6b35c" stroke-opacity="0.22" stroke-width="2"/>
  <g opacity="0.95">
    <circle cx="154" cy="192" r="6" fill="#93d36b"/>
    <circle cx="178" cy="206" r="4" fill="#93d36b"/>
    <circle cx="213" cy="182" r="4" fill="#93d36b"/>
    <circle cx="520" cy="124" r="5" fill="#7cc8ff"/>
    <circle cx="554" cy="143" r="4" fill="#7cc8ff"/>
    <circle cx="584" cy="126" r="4" fill="#7cc8ff"/>
    <circle cx="441" cy="222" r="5" fill="#ee6b5f"/>
  </g>
  <path d="M154 192 441 222 520 124" fill="none" stroke="#eef5eb" stroke-opacity="0.18" stroke-width="1.5" stroke-dasharray="7 9"/>
  <path d="M615 294h82M656 253v82" stroke="#eef5eb" stroke-opacity="0.18" stroke-width="2"/>
</svg>
